<?xml version="1.0" encoding="utf-8"?>
<!-- Generator: Adobe Illustrator 16.0.0, SVG Export Plug-In . SVG Version: 6.00 Build 0)  -->
<!DOCTYPE svg PUBLIC "-//W3C//DTD SVG 1.1//EN" "http://www.w3.org/Graphics/SVG/1.1/DTD/svg11.dtd">
<svg version="1.1" id="Layer_1" xmlns="http://www.w3.org/2000/svg" xmlns:xlink="http://www.w3.org/1999/xlink" x="0px" y="0px"
	 width="26px" height="26px" viewBox="0 0 26 26" style="all:inherit" enable-background="new 0 0 26 26" xml:space="preserve">
<g>
	<path fill="currentColor" d="M1.295,25.253c0.24,0,0.492-0.059,0.752-0.172l7.288-3.24c0.63-0.28,1.47-0.856,1.952-1.343L24.758,7.115
		c0.385-0.385,0.596-0.895,0.596-1.438s-0.211-1.056-0.596-1.437l-3.643-3.646C20.731,0.212,20.221,0,19.676,0
		c-0.542,0-1.053,0.212-1.436,0.596L4.262,14.485c-0.492,0.493-1.063,1.35-1.328,1.993l-2.781,6.758
		c-0.303,0.733-0.088,1.229,0.063,1.459C0.454,25.051,0.847,25.253,1.295,25.253z M4.813,17.253
		c0.032-0.073,0.072-0.155,0.117-0.239l3.158,3.157l-5.477,2.432L4.813,17.253z"/>
</g>
</svg>
